<?xml version="1.0" encoding="UTF-8"?>
<svg id="_레이어_1" data-name="레이어 1" xmlns="http://www.w3.org/2000/svg" viewBox="0 0 256.32 255.84">
  <defs>
    <style>
      .cls-1 {
        fill: #25a0bd;
      }

      .cls-2 {
        fill: #fff;
      }

      .cls-3 {
        fill: #2c889f;
      }

      .cls-4 {
        fill: #121116;
      }

      .cls-5 {
        fill: #23242d;
      }
    </style>
  </defs>
  <path class="cls-3" d="M188.99,68.3c-1.4.58-2.71,1.32-3.93,2.18l2.6-1.5c.43-.25.88-.46,1.33-.68Z"/>
  <path class="cls-3" d="M206,68.06c3.74,1.67,7.01,4.48,9.22,8.3l1.12,1.94c5.57,9.65,2.26,21.98-7.38,27.55l-32.42,18.72v44.34c0,11.14,9.03,20.17,20.17,20.17h2.24c11.14,0,20.17-9.03,20.17-20.17v-81.97c0-8.65-5.46-16.01-13.11-18.87Z"/>
  <path class="cls-1" d="M198.94,66.77c2.49,0,4.86.47,7.05,1.29-5.28-2.36-11.49-2.43-17,.24,2.38-.98,4.98-1.53,7.71-1.53h2.24Z"/>
  <g>
    <path class="cls-2" d="M232.87,83.66c0-10.72-5.72-20.62-15-25.98L141.21,13.41c-9.28-5.36-20.72-5.36-30,0L34.54,57.68c-9.28,5.36-15,15.26-15,25.98v88.53c0,10.72,5.72,20.62,15,25.98l76.67,44.26c9.28,5.36,20.72,5.36,30,0l76.67-44.26c9.28-5.36,15-15.26,15-25.98v-88.53ZM145.92,217.33l-1.38,2.4c-5.21,9.02-16.74,12.11-25.76,6.9l-71.41-41.23c-1.86-1.07-3.45-2.42-4.78-3.96-3.05-3.35-4.92-7.79-4.92-12.67v-82.46c0-7.87,4.83-14.61,11.68-17.43L118.78,28.78c9.02-5.21,20.55-2.12,25.76,6.9l1.38,2.4c5.21,9.02,2.12,20.55-6.9,25.76l-60.88,35.15v57.44l60.88,35.15c9.02,5.21,12.11,16.74,6.9,25.76ZM198.94,189.07h-2.24c-11.14,0-20.17-9.03-20.17-20.17v-44.34s-38.57,22.27-38.57,22.27c-9.65,5.57-21.98,2.26-27.55-7.38l-1.12-1.94c-5.57-9.65-2.26-21.98,7.38-27.55l68.39-39.48c1.22-.86,2.53-1.6,3.93-2.18,5.52-2.67,11.72-2.6,17-.24,7.65,2.86,13.11,10.22,13.11,18.87v81.97c0,11.14-9.03,20.17-20.17,20.17Z"/>
    <path class="cls-5" d="M139.02,191.57l-60.88-35.15v-57.44l-10.54,6.08c-9.02,5.21-20.55,2.12-25.76-6.9l-1.38-2.4c-5.21-9.02-2.12-20.55,6.9-25.76l1.97-1.14c-6.85,2.82-11.68,9.56-11.68,17.43v82.46c0,4.89,1.87,9.32,4.92,12.67,1.33,1.53,2.92,2.88,4.78,3.96l71.41,41.23c9.02,5.21,20.55,2.12,25.76-6.9l1.38-2.4c5.21-9.02,2.12-20.55-6.9-25.76Z"/>
    <path class="cls-4" d="M145.92,38.08l-1.38-2.4c-5.21-9.02-16.74-12.11-25.76-6.9l-69.44,40.09-1.97,1.14c-9.02,5.21-12.11,16.74-6.9,25.76l1.38,2.4c5.21,9.02,16.74,12.11,25.76,6.9l10.54-6.08,60.88-35.15c9.02-5.21,12.11-16.74,6.9-25.76Z"/>
    <path class="cls-1" d="M216.34,78.3l-1.12-1.94c-2.21-3.82-5.48-6.63-9.22-8.3-2.2-.82-4.57-1.29-7.05-1.29h-2.24c-2.73,0-5.33.55-7.71,1.53-.44.22-.89.43-1.33.68l-2.6,1.5-68.39,39.48c-9.65,5.57-12.95,17.9-7.38,27.55l1.12,1.94c5.57,9.65,17.9,12.95,27.55,7.38l38.57-22.27,32.42-18.72c9.65-5.57,12.95-17.9,7.38-27.55Z"/>
  </g>
</svg>