<?xml version="1.0" encoding="UTF-8"?>
<svg id="_레이어_1" data-name="레이어 1" xmlns="http://www.w3.org/2000/svg" viewBox="0 0 517 129">
  <defs>
    <style>
      .cls-1 {
        fill: #25a0bd;
      }

      .cls-2 {
        fill: none;
      }

      .cls-3 {
        fill: #231815;
      }
    </style>
  </defs>
  <g>
    <path class="cls-2" d="M41.5,35.51c6.86-4.69,13.3-6.9,19.11-7.57-7.16.69-13.71,3.41-19.11,7.57Z"/>
    <path class="cls-2" d="M75.27,29.41c.1.03.21.07.31.1-.1-.03-.21-.07-.31-.1Z"/>
    <path class="cls-2" d="M27.81,73.01c-.07-.29-.12-.58-.18-.87.06.29.12.58.18.87Z"/>
    <path class="cls-2" d="M75.99,29.65c6.07,2.09,10.53,5.38,12.85,7.36-3.71-3.25-8.06-5.77-12.85-7.36Z"/>
    <path class="cls-2" d="M89.19,37.31c.07.06.14.12.2.18-.07-.06-.14-.12-.2-.18Z"/>
    <path class="cls-2" d="M40.85,36.03c-5.9,4.77-10.32,11.29-12.46,18.78,3.17-10.46,10.39-17.07,12.46-18.78Z"/>
    <path d="M128.17,71.12h-27.1c-2.89,17.72-18.27,31.25-36.81,31.25-10.63,0-20.22-4.45-27.01-11.59h0c-7.57-7.47-9.36-17.41-9.36-17.41-.03-.12-.05-.24-.07-.36-.06-.29-.12-.58-.18-.87-1.31-6.56-.74-12.38.76-17.33,2.14-7.49,6.55-14.02,12.46-18.78.36-.3.57-.46.57-.46.03-.02.06-.04.09-.06,5.39-4.16,11.95-6.88,19.11-7.57,5.51-.64,10.45.12,14.66,1.47.1.03.21.07.31.1.13.04.27.09.4.14,4.79,1.58,9.14,4.11,12.85,7.36.12.11.24.21.35.3.07.06.14.12.2.18.82.73,1.25,1.19,1.25,1.19l19.88-18.83C98.83,7.72,82.43.17,64.26.17,28.77.17,0,28.94,0,64.43s28.77,64.26,64.26,64.26c13.7,0,26.39-4.29,36.81-11.6v10.51h28.75v-56.48h-1.65Z"/>
    <path class="cls-1" d="M89.39,37.49c-.07-.06-.13-.12-.2-.18-.11-.1-.23-.2-.35-.3-2.32-1.98-6.78-5.27-12.85-7.36-.13-.05-.27-.09-.4-.14-.1-.03-.21-.07-.31-.1-4.21-1.36-9.16-2.11-14.66-1.47-5.81.67-12.24,2.88-19.11,7.57-.03.02-.06.04-.09.06,0,0-.21.16-.57.46-2.06,1.72-9.29,8.33-12.46,18.78-1.5,4.95-2.07,10.76-.76,17.33.06.29.11.58.18.87.03.12.04.24.07.36,0,0,1.79,9.95,9.36,17.42h0s26.99-26.37,26.99-26.37h64.95s.38-27.84-18.67-44.57l-19.88,18.83s-.43-.46-1.25-1.19Z"/>
  </g>
  <path class="cls-3" d="M231.9,129.08s0,0,0,0l36.09-.08L162.81.19h-27.71v128.67h27.71v-14.95h57.03l12.1,15.17h-.04ZM163.18,86.3l-.35-40.81,33.23,40.45-32.89.36Z"/>
  <polygon class="cls-3" points="309.97 0 309.97 1.9 273.74 42.57 235.98 .19 235.98 .15 235.94 .15 235.89 .08 235.81 .15 210.95 .15 210.95 53.67 210.89 53.67 239.02 87.42 239.02 53.67 239.02 46.9 254.14 64.57 254.01 64.71 273.66 87.56 273.74 87.47 273.81 87.56 293.46 64.71 293.33 64.57 309.23 46 309.23 129 309.97 129 334.26 129 338 129 338 0 309.97 0"/>
  <g>
    <rect x="342.05" y="1.29" width="80.89" height="28.63"/>
    <rect x="342.05" y="50.18" width="80.89" height="28.63"/>
    <rect x="342.05" y="99.08" width="80.89" height="28.63"/>
  </g>
  <path class="cls-3" d="M502.99,63.81c.06-.07.12-.13.18-.2-13.41-14.12-33.44-13.69-33.44-13.69.01,0,.03,0,.04,0-.4.03-.81.06-1.22.06-6.97,0-12.62-5.14-12.62-11.49s5.65-11.49,12.62-11.49,12.62,5.14,12.62,11.49c0,.68-.08,1.35-.2,2,.08-.35.11-.58.11-.58h31.27c0-.17.01-.33.01-.5C512.37,17.64,492.86,0,468.81,0s-43.56,17.64-43.56,39.41c0,9.86,4.01,18.87,10.63,25.79-.06.07-.12.13-.18.2,13.41,14.12,33.44,13.69,33.44,13.69-.01,0-.03,0-.04,0,.4-.03.81-.06,1.22-.06,6.97,0,12.62,5.14,12.62,11.49s-5.65,11.49-12.62,11.49-12.62-5.14-12.62-11.49c0-.68.08-1.35.2-2-.08.35-.11.58-.11.58h-31.27c0,.17-.01.33-.01.5,0,21.76,19.5,39.41,43.56,39.41s43.56-17.64,43.56-39.41c0-9.86-4.01-18.87-10.63-25.79Z"/>
</svg>