<?xml version="1.0" encoding="UTF-8"?>
<svg id="_레이어_3" data-name="레이어 3" xmlns="http://www.w3.org/2000/svg" viewBox="0 0 160 160">
  <defs>
    <style>
      .cls-1 {
        fill: #58b2d3;
      }

      .cls-2 {
        fill: #141316;
      }

      .cls-3 {
        fill: #fff;
      }

      .cls-4 {
        fill: #24252c;
      }

      .cls-5 {
        fill: #4893ae;
      }
    </style>
  </defs>
  <path class="cls-3" d="M74.81,18.29c4.34,6.9,8.67,13.81,13.01,20.71"/>
  <line x1="87.62" y1="39" x2="42.18" y2="65.58"/>
  <g>
    <circle class="cls-4" cx="36.2" cy="54.73" r="12.59"/>
    <path class="cls-4" d="M29.93,116.18c6.03,3.46,13.73,1.38,17.19-4.64s1.38-13.73-4.64-17.19-13.73-1.38-17.19,4.64c-1.52,2.64-1.97,5.59-1.5,8.38.61,3.58,2.75,6.86,6.14,8.81Z"/>
    <g>
      <rect class="cls-4" x="23.59" y="79.82" width="25.18" height="25.18" transform="translate(-56.23 128.6) rotate(-90)"/>
      <rect class="cls-4" x="23.59" y="54.7" width="25.18" height="25.18" transform="translate(-31.11 103.47) rotate(-90)"/>
    </g>
  </g>
  <g>
    <path class="cls-5" d="M117.18,117.03c6.34,3.53,14.45,1.39,18.11-4.78s1.48-14.04-4.86-17.57-14.45-1.39-18.11,4.78c-1.6,2.7-2.08,5.72-1.59,8.57.63,3.66,2.89,7.01,6.45,9Z"/>
    <g>
      <polygon class="cls-5" points="137.08 79.82 137.04 105.57 110.52 105.61 110.56 79.86 137.08 79.82"/>
      <polygon class="cls-5" points="137.12 54.14 137.08 79.88 110.56 79.92 110.6 54.18 137.12 54.14"/>
    </g>
  </g>
  <g>
    <circle class="cls-4" cx="80" cy="130.45" r="12.59"/>
    <path class="cls-4" d="M23.59,105.27c0-6.95,5.64-12.59,12.59-12.59s12.59,5.64,12.59,12.59-5.64,12.59-12.59,12.59c-3.04,0-5.83-1.08-8.01-2.88-2.8-2.31-4.58-5.8-4.58-9.72Z"/>
    <g>
      <rect class="cls-4" x="34.73" y="99.1" width="25.18" height="25.18" transform="translate(61.93 -8.73) rotate(29.88)"/>
      <rect class="cls-4" x="56.51" y="111.62" width="25.18" height="25.18" transform="translate(71.06 -17.91) rotate(29.88)"/>
    </g>
  </g>
  <g>
    <circle class="cls-2" cx="80.01" cy="29.55" r="12.59"/>
    <path class="cls-2" d="M23.61,54.73c0,6.95,5.64,12.59,12.59,12.59s12.59-5.64,12.59-12.59-5.64-12.59-12.59-12.59c-3.04,0-5.83,1.08-8.01,2.88-2.8,2.31-4.58,5.8-4.58,9.72Z"/>
    <g>
      <rect class="cls-2" x="34.74" y="35.72" width="25.18" height="25.18" transform="translate(-17.77 30) rotate(-29.88)"/>
      <rect class="cls-2" x="56.52" y="23.2" width="25.18" height="25.18" transform="translate(-8.64 39.19) rotate(-29.88)"/>
    </g>
  </g>
  <g>
    <path class="cls-1" d="M109.84,54.87c-.09,7.39,5.94,13.27,13.48,13.15,7.54-.13,13.72-6.21,13.81-13.6s-5.94-13.27-13.48-13.15-13.72,6.21-13.81,13.6Z"/>
    <path class="cls-1" d="M65.2,80.56c.09,7.28,6.01,13.23,13.23,13.29,7.22.06,13.01-5.8,12.92-13.08-.09-7.28-6.01-13.23-13.23-13.29-3.16-.02-6.05,1.08-8.28,2.95-2.88,2.4-4.69,6.04-4.64,10.14Z"/>
    <g>
      <polygon class="cls-1" points="107.68 79.02 85.16 91.98 71.86 69.02 94.38 56.06 107.68 79.02"/>
      <polygon class="cls-1" points="130.16 66.09 107.63 79.05 94.33 56.09 116.86 43.13 130.16 66.09"/>
    </g>
  </g>
</svg>