<?xml version="1.0" standalone="no"?>
<!DOCTYPE svg PUBLIC "-//W3C//DTD SVG 20010904//EN"
 "http://www.w3.org/TR/2001/REC-SVG-20010904/DTD/svg10.dtd">
<svg version="1.0" xmlns="http://www.w3.org/2000/svg"
 width="257.000000pt" height="256.000000pt" viewBox="0 0 257.000000 256.000000"
 preserveAspectRatio="xMidYMid meet">

<g transform="translate(0.000000,256.000000) scale(0.100000,-0.100000)"
fill="#000000" stroke="none">
<path d="M1214 2286 c-31 -14 -687 -388 -756 -432 -21 -13 -48 -43 -60 -67
-23 -42 -23 -43 -23 -503 l0 -461 30 -48 c29 -46 49 -59 419 -274 362 -209
393 -225 446 -229 71 -5 128 21 169 78 61 84 61 186 2 252 -16 18 -167 112
-342 213 l-314 181 -3 285 -2 286 292 168 c161 93 309 179 329 192 83 55 107
165 55 259 -52 97 -154 138 -242 100z"/>
<path d="M2182 1609 c-1 -9 -15 -34 -31 -55 -21 -30 -70 -63 -204 -139 l-177
-100 0 -245 c0 -218 3 -250 19 -286 68 -149 303 -150 375 -1 l26 53 -3 394
c-1 217 -3 388 -5 379z"/>
</g>
</svg>
